<mxfile host="app.diagrams.net" agent="Mozilla/5.0 (Windows NT 10.0; Win64; x64; rv:137.0) Gecko/20100101 Firefox/137.0" version="26.2.9">
  <diagram name="Page-1" id="vjVgLxB0lsxup_JvcNpQ">
    <mxGraphModel dx="448" dy="1339" grid="1" gridSize="10" guides="1" tooltips="1" connect="1" arrows="1" fold="1" page="1" pageScale="1" pageWidth="850" pageHeight="1100" math="0" shadow="0">
      <root>
        <mxCell id="0" />
        <mxCell id="1" parent="0" />
        <mxCell id="ctbik1qswiM7wxdiC6Y1-1" value="&lt;u&gt;customer_id&lt;/u&gt;" style="ellipse;whiteSpace=wrap;html=1;align=center;fillColor=#f8cecc;strokeColor=#b85450;" parent="1" vertex="1">
          <mxGeometry x="350" y="190" width="100" height="40" as="geometry" />
        </mxCell>
        <mxCell id="ctbik1qswiM7wxdiC6Y1-9" style="rounded=0;orthogonalLoop=1;jettySize=auto;html=1;entryX=0.5;entryY=0;entryDx=0;entryDy=0;endArrow=none;startFill=0;" parent="1" source="ctbik1qswiM7wxdiC6Y1-2" target="ctbik1qswiM7wxdiC6Y1-1" edge="1">
          <mxGeometry relative="1" as="geometry" />
        </mxCell>
        <mxCell id="ctbik1qswiM7wxdiC6Y1-10" style="rounded=0;orthogonalLoop=1;jettySize=auto;html=1;exitX=0.5;exitY=1;exitDx=0;exitDy=0;entryX=0.5;entryY=0;entryDx=0;entryDy=0;endArrow=none;startFill=0;" parent="1" source="ctbik1qswiM7wxdiC6Y1-2" target="ctbik1qswiM7wxdiC6Y1-3" edge="1">
          <mxGeometry relative="1" as="geometry" />
        </mxCell>
        <mxCell id="ctbik1qswiM7wxdiC6Y1-2" value="customer" style="whiteSpace=wrap;html=1;align=center;" parent="1" vertex="1">
          <mxGeometry x="500" y="140" width="100" height="40" as="geometry" />
        </mxCell>
        <mxCell id="ctbik1qswiM7wxdiC6Y1-3" value="nama" style="ellipse;whiteSpace=wrap;html=1;align=center;" parent="1" vertex="1">
          <mxGeometry x="420" y="230" width="100" height="40" as="geometry" />
        </mxCell>
        <mxCell id="ctbik1qswiM7wxdiC6Y1-4" value="email" style="ellipse;whiteSpace=wrap;html=1;align=center;" parent="1" vertex="1">
          <mxGeometry x="520" y="240" width="100" height="40" as="geometry" />
        </mxCell>
        <mxCell id="ctbik1qswiM7wxdiC6Y1-12" style="rounded=0;orthogonalLoop=1;jettySize=auto;html=1;endArrow=none;startFill=0;entryX=0.5;entryY=1;entryDx=0;entryDy=0;" parent="1" source="ctbik1qswiM7wxdiC6Y1-5" target="ctbik1qswiM7wxdiC6Y1-2" edge="1">
          <mxGeometry relative="1" as="geometry" />
        </mxCell>
        <mxCell id="ctbik1qswiM7wxdiC6Y1-5" value="alamat" style="ellipse;whiteSpace=wrap;html=1;align=center;" parent="1" vertex="1">
          <mxGeometry x="620" y="220" width="100" height="40" as="geometry" />
        </mxCell>
        <mxCell id="ctbik1qswiM7wxdiC6Y1-13" style="rounded=0;orthogonalLoop=1;jettySize=auto;html=1;endArrow=none;startFill=0;entryX=1;entryY=0.75;entryDx=0;entryDy=0;" parent="1" source="ctbik1qswiM7wxdiC6Y1-8" target="ctbik1qswiM7wxdiC6Y1-2" edge="1">
          <mxGeometry relative="1" as="geometry">
            <mxPoint x="550" y="190" as="targetPoint" />
          </mxGeometry>
        </mxCell>
        <mxCell id="ctbik1qswiM7wxdiC6Y1-8" value="jenis_kelamin" style="ellipse;whiteSpace=wrap;html=1;align=center;" parent="1" vertex="1">
          <mxGeometry x="660" y="170" width="100" height="40" as="geometry" />
        </mxCell>
        <mxCell id="ctbik1qswiM7wxdiC6Y1-11" style="rounded=0;orthogonalLoop=1;jettySize=auto;html=1;entryX=0.367;entryY=0.028;entryDx=0;entryDy=0;entryPerimeter=0;endArrow=none;startFill=0;" parent="1" source="ctbik1qswiM7wxdiC6Y1-2" target="ctbik1qswiM7wxdiC6Y1-4" edge="1">
          <mxGeometry relative="1" as="geometry" />
        </mxCell>
        <mxCell id="ctbik1qswiM7wxdiC6Y1-14" value="photographer" style="whiteSpace=wrap;html=1;align=center;" parent="1" vertex="1">
          <mxGeometry x="500" y="-130" width="100" height="40" as="geometry" />
        </mxCell>
        <mxCell id="IOXQwu29axNp4OlPJ3UF-17" style="rounded=0;orthogonalLoop=1;jettySize=auto;html=1;entryX=0.5;entryY=1;entryDx=0;entryDy=0;endArrow=none;startFill=0;" edge="1" parent="1" source="ctbik1qswiM7wxdiC6Y1-25" target="ctbik1qswiM7wxdiC6Y1-14">
          <mxGeometry relative="1" as="geometry" />
        </mxCell>
        <mxCell id="ctbik1qswiM7wxdiC6Y1-25" value="&lt;u&gt;photographer_id&lt;/u&gt;" style="ellipse;whiteSpace=wrap;html=1;align=center;fillColor=#f8cecc;strokeColor=#b85450;" parent="1" vertex="1">
          <mxGeometry x="330" y="-130" width="100" height="40" as="geometry" />
        </mxCell>
        <mxCell id="ctbik1qswiM7wxdiC6Y1-27" style="rounded=0;orthogonalLoop=1;jettySize=auto;html=1;exitX=0.5;exitY=1;exitDx=0;exitDy=0;entryX=0.5;entryY=0;entryDx=0;entryDy=0;endArrow=none;startFill=0;" parent="1" target="ctbik1qswiM7wxdiC6Y1-28" edge="1" source="ctbik1qswiM7wxdiC6Y1-14">
          <mxGeometry relative="1" as="geometry">
            <mxPoint x="545" y="-70" as="sourcePoint" />
          </mxGeometry>
        </mxCell>
        <mxCell id="ctbik1qswiM7wxdiC6Y1-28" value="nama" style="ellipse;whiteSpace=wrap;html=1;align=center;" parent="1" vertex="1">
          <mxGeometry x="390" y="-80" width="100" height="40" as="geometry" />
        </mxCell>
        <mxCell id="ctbik1qswiM7wxdiC6Y1-29" value="email" style="ellipse;whiteSpace=wrap;html=1;align=center;" parent="1" vertex="1">
          <mxGeometry x="470" y="-30" width="100" height="40" as="geometry" />
        </mxCell>
        <mxCell id="IOXQwu29axNp4OlPJ3UF-14" style="rounded=0;orthogonalLoop=1;jettySize=auto;html=1;entryX=0.5;entryY=1;entryDx=0;entryDy=0;endArrow=none;startFill=0;" edge="1" parent="1" source="ctbik1qswiM7wxdiC6Y1-31" target="ctbik1qswiM7wxdiC6Y1-14">
          <mxGeometry relative="1" as="geometry" />
        </mxCell>
        <mxCell id="ctbik1qswiM7wxdiC6Y1-31" value="alamat" style="ellipse;whiteSpace=wrap;html=1;align=center;" parent="1" vertex="1">
          <mxGeometry x="580" y="-30" width="100" height="40" as="geometry" />
        </mxCell>
        <mxCell id="ctbik1qswiM7wxdiC6Y1-32" style="rounded=0;orthogonalLoop=1;jettySize=auto;html=1;endArrow=none;startFill=0;entryX=0.5;entryY=1;entryDx=0;entryDy=0;" parent="1" source="ctbik1qswiM7wxdiC6Y1-33" edge="1" target="ctbik1qswiM7wxdiC6Y1-14">
          <mxGeometry relative="1" as="geometry">
            <mxPoint x="595" y="-80" as="targetPoint" />
          </mxGeometry>
        </mxCell>
        <mxCell id="ctbik1qswiM7wxdiC6Y1-33" value="jenis_kelamin" style="ellipse;whiteSpace=wrap;html=1;align=center;" parent="1" vertex="1">
          <mxGeometry x="655" y="-80" width="100" height="40" as="geometry" />
        </mxCell>
        <mxCell id="ctbik1qswiM7wxdiC6Y1-34" style="rounded=0;orthogonalLoop=1;jettySize=auto;html=1;entryX=0.367;entryY=0.028;entryDx=0;entryDy=0;entryPerimeter=0;endArrow=none;startFill=0;exitX=0.5;exitY=1;exitDx=0;exitDy=0;" parent="1" target="ctbik1qswiM7wxdiC6Y1-29" edge="1" source="ctbik1qswiM7wxdiC6Y1-14">
          <mxGeometry relative="1" as="geometry">
            <mxPoint x="547" y="-70" as="sourcePoint" />
          </mxGeometry>
        </mxCell>
        <mxCell id="IOXQwu29axNp4OlPJ3UF-16" style="rounded=0;orthogonalLoop=1;jettySize=auto;html=1;entryX=0.5;entryY=1;entryDx=0;entryDy=0;endArrow=none;startFill=0;" edge="1" parent="1" source="ctbik1qswiM7wxdiC6Y1-36" target="ctbik1qswiM7wxdiC6Y1-14">
          <mxGeometry relative="1" as="geometry" />
        </mxCell>
        <mxCell id="ctbik1qswiM7wxdiC6Y1-36" value="bayaran_perjam" style="ellipse;whiteSpace=wrap;html=1;align=center;" parent="1" vertex="1">
          <mxGeometry x="755" y="-100" width="100" height="40" as="geometry" />
        </mxCell>
        <mxCell id="IOXQwu29axNp4OlPJ3UF-15" style="rounded=0;orthogonalLoop=1;jettySize=auto;html=1;entryX=0.5;entryY=1;entryDx=0;entryDy=0;endArrow=none;startFill=0;" edge="1" parent="1" source="ctbik1qswiM7wxdiC6Y1-37" target="ctbik1qswiM7wxdiC6Y1-14">
          <mxGeometry relative="1" as="geometry" />
        </mxCell>
        <mxCell id="ctbik1qswiM7wxdiC6Y1-37" value="portofolio_url" style="ellipse;whiteSpace=wrap;html=1;align=center;" parent="1" vertex="1">
          <mxGeometry x="690" y="-20" width="100" height="40" as="geometry" />
        </mxCell>
        <mxCell id="ctbik1qswiM7wxdiC6Y1-39" value="order" style="whiteSpace=wrap;html=1;align=center;" parent="1" vertex="1">
          <mxGeometry x="1020" y="-50" width="100" height="40" as="geometry" />
        </mxCell>
        <mxCell id="IOXQwu29axNp4OlPJ3UF-2" style="rounded=0;orthogonalLoop=1;jettySize=auto;html=1;entryX=0.5;entryY=1;entryDx=0;entryDy=0;endArrow=none;startFill=0;" edge="1" parent="1" source="ctbik1qswiM7wxdiC6Y1-40" target="ctbik1qswiM7wxdiC6Y1-39">
          <mxGeometry relative="1" as="geometry" />
        </mxCell>
        <mxCell id="ctbik1qswiM7wxdiC6Y1-40" value="&lt;u&gt;order_id&lt;/u&gt;" style="ellipse;whiteSpace=wrap;html=1;align=center;fillColor=#f8cecc;strokeColor=#b85450;" parent="1" vertex="1">
          <mxGeometry x="860" width="100" height="40" as="geometry" />
        </mxCell>
        <mxCell id="IOXQwu29axNp4OlPJ3UF-4" style="rounded=0;orthogonalLoop=1;jettySize=auto;html=1;entryX=0.5;entryY=1;entryDx=0;entryDy=0;endArrow=none;startFill=0;" edge="1" parent="1" source="ctbik1qswiM7wxdiC6Y1-41" target="ctbik1qswiM7wxdiC6Y1-39">
          <mxGeometry relative="1" as="geometry">
            <mxPoint x="1070" as="targetPoint" />
          </mxGeometry>
        </mxCell>
        <mxCell id="IOXQwu29axNp4OlPJ3UF-3" style="rounded=0;orthogonalLoop=1;jettySize=auto;html=1;entryX=0.5;entryY=1;entryDx=0;entryDy=0;endArrow=none;startFill=0;" edge="1" parent="1" source="ctbik1qswiM7wxdiC6Y1-42" target="ctbik1qswiM7wxdiC6Y1-39">
          <mxGeometry relative="1" as="geometry">
            <mxPoint x="1070" as="targetPoint" />
          </mxGeometry>
        </mxCell>
        <mxCell id="ctbik1qswiM7wxdiC6Y1-42" value="&lt;u&gt;customer_id&lt;/u&gt;" style="ellipse;whiteSpace=wrap;html=1;align=center;" parent="1" vertex="1">
          <mxGeometry x="910" y="50" width="100" height="40" as="geometry" />
        </mxCell>
        <mxCell id="IOXQwu29axNp4OlPJ3UF-5" style="rounded=0;orthogonalLoop=1;jettySize=auto;html=1;entryX=0.5;entryY=1;entryDx=0;entryDy=0;endArrow=none;startFill=0;" edge="1" parent="1" source="ctbik1qswiM7wxdiC6Y1-43" target="ctbik1qswiM7wxdiC6Y1-39">
          <mxGeometry relative="1" as="geometry" />
        </mxCell>
        <mxCell id="ctbik1qswiM7wxdiC6Y1-43" value="lokasi_potret" style="ellipse;whiteSpace=wrap;html=1;align=center;" parent="1" vertex="1">
          <mxGeometry x="1160" y="-10" width="100" height="40" as="geometry" />
        </mxCell>
        <mxCell id="IOXQwu29axNp4OlPJ3UF-8" style="rounded=0;orthogonalLoop=1;jettySize=auto;html=1;entryX=0.5;entryY=1;entryDx=0;entryDy=0;endArrow=none;startFill=0;" edge="1" parent="1" source="ctbik1qswiM7wxdiC6Y1-44" target="ctbik1qswiM7wxdiC6Y1-39">
          <mxGeometry relative="1" as="geometry">
            <mxPoint x="1070" as="targetPoint" />
          </mxGeometry>
        </mxCell>
        <mxCell id="ctbik1qswiM7wxdiC6Y1-44" value="order_status" style="ellipse;whiteSpace=wrap;html=1;align=center;" parent="1" vertex="1">
          <mxGeometry x="1070" y="110" width="100" height="40" as="geometry" />
        </mxCell>
        <mxCell id="IOXQwu29axNp4OlPJ3UF-10" style="rounded=0;orthogonalLoop=1;jettySize=auto;html=1;entryX=0.5;entryY=1;entryDx=0;entryDy=0;endArrow=none;startFill=0;" edge="1" parent="1" source="ctbik1qswiM7wxdiC6Y1-45" target="ctbik1qswiM7wxdiC6Y1-39">
          <mxGeometry relative="1" as="geometry" />
        </mxCell>
        <mxCell id="ctbik1qswiM7wxdiC6Y1-45" value="total_harga" style="ellipse;whiteSpace=wrap;html=1;align=center;" parent="1" vertex="1">
          <mxGeometry x="1210" y="60" width="100" height="40" as="geometry" />
        </mxCell>
        <mxCell id="IOXQwu29axNp4OlPJ3UF-12" style="rounded=0;orthogonalLoop=1;jettySize=auto;html=1;endArrow=none;startFill=0;" edge="1" parent="1" source="ctbik1qswiM7wxdiC6Y1-41">
          <mxGeometry relative="1" as="geometry">
            <mxPoint x="1070" y="-10" as="targetPoint" />
          </mxGeometry>
        </mxCell>
        <mxCell id="ctbik1qswiM7wxdiC6Y1-46" value="tanggal_potret" style="ellipse;whiteSpace=wrap;html=1;align=center;" parent="1" vertex="1">
          <mxGeometry x="1210" y="140" width="100" height="40" as="geometry" />
        </mxCell>
        <mxCell id="IOXQwu29axNp4OlPJ3UF-9" style="rounded=0;orthogonalLoop=1;jettySize=auto;html=1;entryX=0.5;entryY=1;entryDx=0;entryDy=0;endArrow=none;startFill=0;" edge="1" parent="1" target="ctbik1qswiM7wxdiC6Y1-39">
          <mxGeometry relative="1" as="geometry">
            <mxPoint x="1025" y="150" as="sourcePoint" />
            <mxPoint x="1080" y="-10" as="targetPoint" />
          </mxGeometry>
        </mxCell>
        <mxCell id="ctbik1qswiM7wxdiC6Y1-47" value="metode_pembayaran" style="ellipse;whiteSpace=wrap;html=1;align=center;" parent="1" vertex="1">
          <mxGeometry x="940" y="100" width="130" height="40" as="geometry" />
        </mxCell>
        <mxCell id="ctbik1qswiM7wxdiC6Y1-48" value="foto" style="whiteSpace=wrap;html=1;align=center;" parent="1" vertex="1">
          <mxGeometry x="990" y="-160" width="100" height="40" as="geometry" />
        </mxCell>
        <mxCell id="IOXQwu29axNp4OlPJ3UF-18" style="rounded=0;orthogonalLoop=1;jettySize=auto;html=1;entryX=0.5;entryY=0;entryDx=0;entryDy=0;endArrow=none;startFill=0;" edge="1" parent="1" source="ctbik1qswiM7wxdiC6Y1-50" target="ctbik1qswiM7wxdiC6Y1-48">
          <mxGeometry relative="1" as="geometry" />
        </mxCell>
        <mxCell id="ctbik1qswiM7wxdiC6Y1-50" value="&lt;u&gt;foto_id&lt;/u&gt;" style="ellipse;whiteSpace=wrap;html=1;align=center;fillColor=#f8cecc;strokeColor=#b85450;" parent="1" vertex="1">
          <mxGeometry x="890" y="-230" width="100" height="40" as="geometry" />
        </mxCell>
        <mxCell id="IOXQwu29axNp4OlPJ3UF-19" style="rounded=0;orthogonalLoop=1;jettySize=auto;html=1;entryX=0.5;entryY=0;entryDx=0;entryDy=0;endArrow=none;startFill=0;" edge="1" parent="1" source="ctbik1qswiM7wxdiC6Y1-51" target="ctbik1qswiM7wxdiC6Y1-48">
          <mxGeometry relative="1" as="geometry">
            <mxPoint x="1050" y="-190.00000000000023" as="targetPoint" />
          </mxGeometry>
        </mxCell>
        <mxCell id="ctbik1qswiM7wxdiC6Y1-51" value="&lt;u&gt;order_id&lt;/u&gt;" style="ellipse;whiteSpace=wrap;html=1;align=center;" parent="1" vertex="1">
          <mxGeometry x="930" y="-310" width="100" height="40" as="geometry" />
        </mxCell>
        <mxCell id="IOXQwu29axNp4OlPJ3UF-20" style="rounded=0;orthogonalLoop=1;jettySize=auto;html=1;entryX=0.5;entryY=0;entryDx=0;entryDy=0;endArrow=none;startFill=0;" edge="1" parent="1" source="ctbik1qswiM7wxdiC6Y1-52" target="ctbik1qswiM7wxdiC6Y1-48">
          <mxGeometry relative="1" as="geometry" />
        </mxCell>
        <mxCell id="ctbik1qswiM7wxdiC6Y1-52" value="foto_url" style="ellipse;whiteSpace=wrap;html=1;align=center;" parent="1" vertex="1">
          <mxGeometry x="1020" y="-260" width="100" height="40" as="geometry" />
        </mxCell>
        <mxCell id="IOXQwu29axNp4OlPJ3UF-21" style="rounded=0;orthogonalLoop=1;jettySize=auto;html=1;entryX=0.5;entryY=0;entryDx=0;entryDy=0;endArrow=none;startFill=0;" edge="1" parent="1" source="ctbik1qswiM7wxdiC6Y1-53" target="ctbik1qswiM7wxdiC6Y1-48">
          <mxGeometry relative="1" as="geometry">
            <mxPoint x="1050" y="-190.00000000000023" as="targetPoint" />
          </mxGeometry>
        </mxCell>
        <mxCell id="ctbik1qswiM7wxdiC6Y1-53" value="size" style="ellipse;whiteSpace=wrap;html=1;align=center;" parent="1" vertex="1">
          <mxGeometry x="1120" y="-270" width="100" height="40" as="geometry" />
        </mxCell>
        <mxCell id="IOXQwu29axNp4OlPJ3UF-22" style="rounded=0;orthogonalLoop=1;jettySize=auto;html=1;entryX=0.5;entryY=0;entryDx=0;entryDy=0;endArrow=none;startFill=0;" edge="1" parent="1" source="ctbik1qswiM7wxdiC6Y1-54" target="ctbik1qswiM7wxdiC6Y1-48">
          <mxGeometry relative="1" as="geometry" />
        </mxCell>
        <mxCell id="ctbik1qswiM7wxdiC6Y1-54" value="resolusi" style="ellipse;whiteSpace=wrap;html=1;align=center;" parent="1" vertex="1">
          <mxGeometry x="1130" y="-200" width="100" height="40" as="geometry" />
        </mxCell>
        <mxCell id="IOXQwu29axNp4OlPJ3UF-13" value="" style="rounded=0;orthogonalLoop=1;jettySize=auto;html=1;endArrow=none;startFill=0;" edge="1" parent="1" source="ctbik1qswiM7wxdiC6Y1-46" target="ctbik1qswiM7wxdiC6Y1-41">
          <mxGeometry relative="1" as="geometry">
            <mxPoint x="1070" y="-10" as="targetPoint" />
            <mxPoint x="1240" y="142" as="sourcePoint" />
          </mxGeometry>
        </mxCell>
        <mxCell id="ctbik1qswiM7wxdiC6Y1-41" value="&lt;u&gt;photographer_id&lt;/u&gt;" style="ellipse;whiteSpace=wrap;html=1;align=center;" parent="1" vertex="1">
          <mxGeometry x="1150" y="80" width="100" height="40" as="geometry" />
        </mxCell>
      </root>
    </mxGraphModel>
  </diagram>
</mxfile>
